<?xml version="1.0" standalone="no"?>
<!DOCTYPE svg PUBLIC "-//W3C//DTD SVG 20010904//EN"
 "http://www.w3.org/TR/2001/REC-SVG-20010904/DTD/svg10.dtd">
<svg version="1.0" xmlns="http://www.w3.org/2000/svg"
 width="614.000000pt" height="200.000000pt" viewBox="0 0 614.000000 200.000000"
 preserveAspectRatio="xMidYMid meet">

<g transform="translate(0.000000,200.000000) scale(0.100000,-0.100000)"
fill="#000000" stroke="none">
<path d="M2592 1790 c-74 -11 -172 -62 -220 -114 -94 -102 -135 -233 -135
-431 0 -257 79 -432 231 -509 174 -88 412 -23 500 139 l17 30 3 -92 3 -93 34
0 35 0 0 270 0 270 -195 0 -195 0 0 -40 0 -40 155 0 155 0 0 -48 c0 -151 -78
-285 -198 -339 -48 -22 -64 -25 -141 -21 -103 5 -154 29 -219 103 -160 182
-140 621 35 775 57 50 118 70 212 70 90 0 146 -22 204 -78 39 -37 87 -118 87
-147 0 -11 11 -15 44 -15 l44 0 -10 38 c-13 46 -44 107 -75 149 -70 91 -228
144 -371 123z"/>
<path d="M3865 1790 c-69 -10 -115 -31 -163 -75 -130 -117 -115 -339 28 -427
25 -15 112 -47 194 -72 216 -65 260 -107 254 -243 -3 -61 -8 -78 -33 -114 -47
-66 -91 -84 -210 -84 -91 0 -104 2 -148 28 -54 32 -103 107 -113 174 -6 42 -7
43 -46 43 l-41 0 7 -52 c17 -124 96 -223 204 -254 73 -21 197 -21 268 2 78 24
147 88 174 162 28 74 25 196 -8 258 -41 81 -90 110 -277 163 -169 49 -220 77
-247 138 -43 97 -3 210 91 260 57 30 175 32 236 4 69 -31 125 -113 125 -183 0
-14 8 -18 35 -18 33 0 35 2 35 33 0 99 -82 210 -176 240 -64 20 -127 26 -189
17z"/>
<path d="M30 1403 c0 -399 7 -467 54 -547 54 -92 145 -143 274 -153 158 -12
286 36 349 131 64 95 66 110 71 544 l4 392 -101 0 -100 0 -3 -382 c-3 -360 -4
-385 -23 -422 -32 -64 -64 -81 -150 -81 -83 0 -115 16 -150 76 -19 32 -20 55
-23 422 l-3 387 -99 0 -100 0 0 -367z"/>
<path d="M970 1245 l0 -525 90 0 90 0 2 364 3 365 185 -362 185 -362 98 -3 97
-3 0 526 0 525 -90 0 -90 0 -2 -359 -3 -359 -183 359 -183 359 -100 0 -99 0 0
-525z"/>
<path d="M1880 1245 l0 -525 100 0 100 0 0 525 0 525 -100 0 -100 0 0 -525z"/>
<path d="M3310 1245 l0 -525 40 0 40 0 0 525 0 525 -40 0 -40 0 0 -525z"/>
<path d="M184 521 c-60 -27 -88 -88 -82 -181 4 -80 24 -115 82 -144 45 -22 93
-16 135 19 l29 25 6 -25 c14 -53 26 -22 26 65 l0 90 -65 0 c-51 0 -65 -3 -65
-15 0 -11 12 -15 50 -15 28 0 50 -3 50 -7 0 -30 -24 -85 -43 -98 -26 -18 -106
-19 -129 -1 -24 18 -48 78 -48 118 0 92 42 148 112 148 49 0 76 -14 88 -46 10
-25 40 -34 40 -10 0 23 -42 68 -76 82 -43 18 -61 17 -110 -5z"/>
<path d="M983 529 c-65 -19 -111 -111 -99 -198 12 -91 67 -146 146 -146 52 0
87 19 124 68 29 39 35 151 11 201 -31 66 -108 98 -182 75z m127 -57 c35 -35
47 -100 30 -161 -16 -61 -49 -91 -99 -91 -83 0 -121 44 -121 140 0 90 42 140
118 140 34 0 49 -6 72 -28z"/>
<path d="M460 360 c0 -144 2 -170 15 -170 13 0 15 26 15 170 0 144 -2 170 -15
170 -13 0 -15 -26 -15 -170z"/>
<path d="M580 361 c0 -164 1 -171 20 -171 18 0 20 7 20 75 l0 75 68 0 c37 0
74 -4 81 -9 10 -6 16 -33 19 -75 4 -62 6 -66 29 -66 20 0 22 3 13 19 -5 11
-10 42 -10 70 0 39 -4 54 -19 63 -19 12 -19 13 6 42 20 24 24 37 19 65 -10 62
-33 75 -146 79 l-100 4 0 -171z m200 120 c15 -29 12 -77 -6 -95 -11 -12 -35
-16 -85 -16 l-69 0 0 65 0 65 75 0 c63 0 76 -3 85 -19z"/>
<path d="M1240 360 c0 -143 2 -170 15 -170 12 0 15 25 17 143 l3 142 85 -142
c116 -196 120 -195 120 27 0 143 -2 170 -15 170 -12 0 -15 -25 -17 -142 l-3
-143 -83 143 c-62 104 -89 142 -103 142 -18 0 -19 -9 -19 -170z"/>
<path d="M1637 488 c-9 -24 -36 -100 -61 -170 -40 -112 -43 -128 -27 -128 12
0 22 16 35 55 l17 56 66 -3 66 -3 17 -50 c10 -30 24 -51 33 -53 10 -2 17 0 17
5 0 5 -24 80 -53 168 -44 131 -57 161 -74 163 -15 2 -24 -7 -36 -40z m57 -65
c10 -32 20 -66 22 -75 5 -16 -2 -18 -50 -18 l-55 0 27 75 c15 41 29 75 33 75
3 0 13 -26 23 -57z"/>
<path d="M1900 505 l0 -25 575 0 575 0 0 25 0 25 -575 0 -575 0 0 -25z"/>
</g>
</svg>
