<?xml version="1.0" standalone="no"?>
<!DOCTYPE svg PUBLIC "-//W3C//DTD SVG 20010904//EN"
 "http://www.w3.org/TR/2001/REC-SVG-20010904/DTD/svg10.dtd">
<svg version="1.0" xmlns="http://www.w3.org/2000/svg"
 width="630.000000pt" height="320.000000pt" viewBox="0 0 630.000000 320.000000"
 preserveAspectRatio="xMidYMid meet">

<g transform="translate(0.000000,320.000000) scale(0.100000,-0.100000)"
fill="#000000" stroke="none">
<path d="M750 1600 l0 -1000 2400 0 2400 0 0 1000 0 1000 -2400 0 -2400 0 0
-1000z m4750 0 l0 -940 -1390 0 -1390 0 0 940 0 940 1390 0 1390 0 0 -940z
m-4020 555 l0 -265 -60 0 -60 0 0 265 0 265 60 0 60 0 0 -265z m377 65 l148
-190 3 190 2 190 55 0 55 0 0 -265 0 -265 -67 0 -68 0 -145 185 -145 185 -3
-185 -2 -185 -60 0 -60 0 0 265 0 265 69 0 70 0 148 -190z m281 -472 l-3 -43
-392 -3 -393 -2 0 45 0 45 396 0 395 0 -3 -42z m-231 -163 c70 -31 138 -96
173 -165 22 -44 50 -154 50 -202 l0 -28 -290 0 -290 0 6 -57 c22 -208 110
-313 262 -313 76 0 146 35 206 101 39 44 48 49 66 39 32 -17 24 -36 -44 -104
-87 -87 -145 -109 -277 -104 -83 3 -104 8 -161 36 -193 95 -293 326 -229 531
20 65 91 172 142 215 106 89 257 109 386 51z"/>
<path d="M2944 2207 c-2 -7 -3 -71 -2 -143 l3 -129 38 -3 37 -3 0 145 0 146
-35 0 c-20 0 -38 -6 -41 -13z"/>
<path d="M3700 2190 c0 -30 2 -31 38 -28 32 3 37 6 37 28 0 22 -5 25 -37 28
-36 3 -38 2 -38 -28z"/>
<path d="M3583 2173 c-18 -7 -33 -20 -33 -28 0 -8 -9 -15 -20 -15 -15 0 -20
-7 -20 -25 0 -18 5 -25 20 -25 18 0 20 -7 20 -59 0 -74 14 -91 76 -91 38 0 44
3 44 20 0 13 -10 24 -25 30 -22 8 -25 16 -25 54 0 39 3 45 23 48 14 2 23 11
25 26 3 18 -1 22 -22 22 -20 0 -25 6 -28 28 -3 28 -4 28 -35 15z"/>
<path d="M3880 2175 c-19 -6 -36 -19 -38 -28 -2 -10 -10 -17 -18 -17 -8 0 -14
-10 -14 -25 0 -16 6 -25 15 -25 11 0 15 -13 15 -53 0 -73 19 -97 76 -97 40 0
44 2 44 25 0 18 -5 25 -20 25 -17 0 -20 7 -20 50 0 43 3 50 20 50 15 0 20 7
20 25 0 18 -5 25 -19 25 -14 0 -21 8 -23 28 -3 28 -4 29 -38 17z"/>
<path d="M4298 2173 c-21 -8 -38 -21 -38 -29 0 -8 -7 -14 -15 -14 -9 0 -15 -9
-15 -25 0 -16 6 -25 15 -25 11 0 15 -13 15 -53 0 -73 19 -97 76 -97 40 0 44 2
44 25 0 18 -5 25 -20 25 -17 0 -20 7 -20 50 0 43 3 50 20 50 15 0 20 7 20 25
0 18 -5 25 -19 25 -14 0 -21 8 -23 29 l-3 29 -37 -15z"/>
<path d="M3175 2131 c-11 -4 -39 -6 -62 -3 l-43 5 0 -102 0 -101 35 0 35 0 0
69 c0 71 14 99 44 88 11 -4 16 -26 18 -79 l3 -73 38 -3 37 -3 0 79 c0 61 -4
85 -17 100 -21 25 -59 34 -88 23z"/>
<path d="M3362 2133 c-12 -2 -30 -16 -39 -29 -25 -38 -5 -71 52 -85 49 -13 63
-25 46 -42 -7 -7 -16 -6 -29 6 -22 20 -82 23 -82 4 0 -56 127 -79 174 -31 38
37 7 90 -58 101 -42 7 -55 20 -30 30 10 4 19 2 22 -5 2 -7 21 -12 42 -12 34 0
38 2 33 21 -3 12 -21 27 -39 35 -33 14 -49 15 -92 7z"/>
<path d="M4463 2125 c-39 -17 -53 -42 -53 -94 0 -28 7 -48 24 -68 22 -25 31
-28 86 -28 55 0 64 3 86 28 17 20 24 40 24 70 0 54 -21 83 -68 97 -47 13 -60
12 -99 -5z m88 -56 c9 -18 5 -89 -6 -89 -2 0 -10 -3 -18 -6 -20 -7 -47 22 -47
52 0 58 47 87 71 43z"/>
<path d="M3702 2033 l3 -98 35 0 35 0 3 98 3 97 -41 0 -41 0 3 -97z"/>
<path d="M3992 2049 c3 -72 6 -83 28 -101 18 -15 33 -18 60 -14 19 3 54 6 78
6 l42 -1 0 96 0 95 -35 0 -34 0 -3 -72 c-3 -70 -4 -73 -28 -73 -24 0 -25 3
-28 73 l-3 72 -40 0 -41 0 4 -81z"/>
<path d="M2940 1610 l0 -140 35 0 35 0 0 102 c0 63 4 98 9 93 5 -6 27 -50 49
-100 l39 -90 57 -3 56 -3 0 141 0 140 -35 0 -34 0 -3 -102 -3 -103 -45 102
-45 103 -57 0 -58 0 0 -140z"/>
<path d="M3720 1725 c0 -22 4 -25 40 -25 36 0 40 3 40 25 0 23 -4 25 -40 25
-36 0 -40 -2 -40 -25z"/>
<path d="M4590 1610 l0 -140 35 0 35 0 0 140 0 140 -35 0 -35 0 0 -140z"/>
<path d="M4970 1700 c0 -47 -1 -50 -19 -40 -33 17 -71 11 -96 -15 -20 -19 -25
-34 -25 -75 0 -44 5 -56 29 -81 34 -33 56 -36 91 -12 17 12 25 13 28 5 2 -7
19 -12 38 -12 l34 0 0 140 0 140 -40 0 -40 0 0 -50z m-11 -84 c7 -8 11 -34 9
-58 -2 -33 -7 -44 -22 -47 -37 -7 -59 55 -36 100 13 23 33 25 49 5z"/>
<path d="M3290 1657 c-14 -7 -26 -20 -28 -30 -5 -24 56 -24 73 0 11 15 15 15
29 4 25 -21 19 -28 -26 -35 -63 -10 -88 -30 -88 -70 0 -53 49 -78 100 -52 17
8 30 10 30 5 0 -5 16 -9 35 -9 l35 0 0 79 c0 74 -2 81 -26 100 -31 24 -95 28
-134 8z m90 -106 c0 -25 -14 -41 -36 -41 -17 0 -24 6 -24 18 0 10 3 22 7 25
10 10 53 8 53 -2z"/>
<path d="M3530 1658 c-70 -38 -66 -154 7 -184 46 -20 97 -11 129 21 36 36 31
55 -12 55 -28 0 -37 -5 -41 -21 -4 -14 -12 -19 -27 -17 -17 2 -22 11 -24 49
-2 33 2 50 14 59 14 12 18 12 29 -3 8 -11 26 -17 49 -17 41 0 44 8 18 40 -22
28 -104 38 -142 18z"/>
<path d="M3727 1663 c-4 -3 -7 -48 -7 -100 l0 -93 40 0 40 0 0 100 0 100 -33
0 c-19 0 -37 -3 -40 -7z"/>
<path d="M3894 1660 c-64 -26 -73 -134 -15 -177 46 -33 139 -20 168 24 47 72
-4 164 -90 162 -23 0 -52 -4 -63 -9z m86 -49 c14 -26 13 -74 -2 -89 -20 -20
-48 -14 -59 14 -22 59 33 127 61 75z"/>
<path d="M4100 1570 l0 -100 35 0 35 0 0 59 c0 75 6 91 36 91 23 0 24 -3 24
-75 l0 -75 40 0 40 0 0 74 c0 59 -4 78 -21 100 -22 28 -64 35 -100 16 -13 -7
-19 -7 -19 0 0 5 -16 10 -35 10 l-35 0 0 -100z"/>
<path d="M4385 1659 c-21 -13 -35 -29 -35 -41 0 -15 63 -8 81 8 19 17 39 12
39 -10 0 -8 -18 -16 -42 -20 -78 -13 -107 -52 -78 -106 14 -27 65 -35 95 -16
14 9 25 12 25 6 0 -5 16 -10 35 -10 l35 0 0 78 c0 100 -10 114 -81 119 -31 2
-63 -2 -74 -8z m83 -121 c-4 -28 -45 -38 -55 -13 -7 19 12 35 40 35 13 0 18
-6 15 -22z"/>
<path d="M5125 1658 c-35 -18 -45 -40 -45 -93 0 -59 23 -88 77 -100 40 -8 100
10 113 35 15 28 13 30 -25 30 -19 0 -35 -5 -35 -11 0 -18 -55 -6 -58 14 -3 15
5 17 61 17 35 0 66 2 69 6 11 11 -12 80 -33 97 -24 19 -93 23 -124 5z m83 -50
c3 -14 -3 -18 -27 -18 -29 0 -41 17 -24 34 13 13 48 1 51 -16z"/>
<path d="M2944 1277 c-2 -7 -3 -71 -2 -143 l3 -129 108 -3 107 -3 0 31 0 30
-70 0 -70 0 0 30 0 30 65 0 c62 0 65 1 65 25 0 23 -4 24 -62 27 -60 3 -63 4
-66 31 l-3 27 70 0 71 0 0 30 0 30 -105 0 c-78 0 -107 -3 -111 -13z"/>
<path d="M3947 1283 c-4 -3 -7 -26 -7 -50 0 -42 -1 -44 -22 -37 -69 24 -118
-17 -118 -97 0 -40 5 -55 25 -74 26 -27 63 -32 98 -14 16 9 22 9 25 0 2 -6 19
-11 38 -11 l34 0 0 145 0 145 -33 0 c-19 0 -37 -3 -40 -7z m-12 -177 c0 -36
-5 -52 -18 -60 -15 -9 -21 -7 -33 8 -29 40 -10 110 29 104 19 -3 22 -9 22 -52z"/>
<path d="M4098 1273 c-29 -34 -30 -43 -6 -43 13 0 39 13 58 30 l35 29 -36 1
c-22 0 -42 -7 -51 -17z"/>
<path d="M4564 1275 c-11 -28 4 -45 41 -45 32 0 35 2 35 30 0 28 -3 30 -35 30
-22 0 -38 -6 -41 -15z"/>
<path d="M3458 1243 c-21 -8 -38 -21 -38 -29 0 -8 -7 -14 -15 -14 -9 0 -15 -9
-15 -25 0 -16 6 -25 15 -25 11 0 15 -13 15 -53 0 -73 19 -97 76 -97 40 0 44 2
44 25 0 18 -5 25 -20 25 -17 0 -20 7 -20 50 0 43 3 50 20 50 15 0 20 7 20 25
0 18 -5 25 -19 25 -14 0 -21 8 -23 29 l-3 29 -37 -15z"/>
<path d="M4433 1238 c-13 -6 -23 -17 -23 -25 0 -7 -9 -13 -20 -13 -14 0 -20
-7 -20 -21 0 -12 8 -23 20 -26 17 -5 20 -14 20 -63 0 -73 15 -90 76 -90 40 0
44 2 44 25 0 18 -5 25 -20 25 -17 0 -20 7 -20 50 0 43 3 50 20 50 15 0 20 7
20 25 0 18 -5 25 -20 25 -15 0 -20 7 -20 25 0 28 -18 32 -57 13z"/>
<path d="M3233 1199 c-22 -6 -35 -18 -39 -33 -11 -45 -1 -60 51 -77 28 -9 50
-22 50 -29 0 -20 -24 -24 -31 -6 -4 11 -19 16 -44 16 -33 0 -37 -3 -33 -20 8
-32 43 -50 93 -50 64 0 92 22 88 68 -3 35 -6 38 -52 53 -28 8 -52 21 -54 27
-4 14 24 16 33 2 8 -12 75 -13 75 -1 0 5 -8 18 -17 29 -21 25 -76 34 -120 21z"/>
<path d="M3621 1197 c-19 -7 -38 -22 -42 -34 -8 -21 -5 -23 27 -23 22 0 37 6
40 15 9 22 44 19 44 -4 0 -14 -10 -19 -45 -24 -76 -8 -105 -53 -69 -105 11
-16 25 -22 54 -22 21 0 42 5 45 10 5 8 11 7 20 0 8 -6 26 -10 41 -8 l27 3 -2
80 c-2 60 -6 84 -19 97 -23 23 -80 30 -121 15z m69 -116 c0 -10 -7 -24 -16
-31 -12 -11 -18 -10 -32 4 -16 16 -16 18 2 32 27 19 46 18 46 -5z"/>
<path d="M4221 1197 c-66 -23 -60 -88 11 -108 53 -15 66 -25 50 -41 -9 -9 -16
-8 -30 5 -10 9 -33 17 -51 17 -29 0 -32 -2 -26 -22 11 -36 34 -48 92 -48 60 0
93 23 93 64 0 29 -21 48 -68 61 -20 6 -37 16 -40 23 -4 14 24 16 33 2 6 -10
75 -14 75 -4 0 19 -24 43 -51 53 -39 13 -45 13 -88 -2z"/>
<path d="M4755 1202 c-51 -17 -75 -50 -75 -101 0 -68 36 -101 111 -101 31 0
47 7 70 29 39 39 37 51 -10 51 -31 0 -40 -4 -44 -21 -4 -13 -12 -20 -24 -17
-26 5 -32 105 -7 115 10 4 22 0 29 -10 11 -16 85 -25 85 -11 0 19 -26 48 -55
60 -37 15 -48 16 -80 6z"/>
<path d="M4977 1200 c-35 -11 -57 -28 -57 -46 0 -20 60 -18 75 3 14 19 45 11
45 -12 0 -11 -10 -15 -36 -15 -36 0 -73 -15 -86 -34 -13 -19 -9 -64 8 -80 18
-18 66 -21 95 -6 13 7 19 7 19 0 0 -5 16 -10 35 -10 l35 0 0 76 c0 88 -8 108
-51 123 -36 12 -43 13 -82 1z m63 -118 c0 -21 -18 -42 -37 -42 -20 0 -27 28
-13 45 18 21 50 19 50 -3z"/>
<path d="M4060 1100 l0 -100 35 0 35 0 0 100 0 100 -35 0 -35 0 0 -100z"/>
<path d="M4562 1103 l3 -98 38 -3 37 -3 0 100 0 101 -40 0 -41 0 3 -97z"/>
<path d="M1684 1546 c-66 -29 -114 -120 -129 -243 l-6 -53 196 0 195 0 0 48
c0 63 -23 146 -53 192 -43 63 -130 88 -203 56z"/>
</g>
</svg>
