<?xml version="1.0" standalone="no"?>
<!DOCTYPE svg PUBLIC "-//W3C//DTD SVG 20010904//EN"
 "http://www.w3.org/TR/2001/REC-SVG-20010904/DTD/svg10.dtd">
<svg version="1.0" xmlns="http://www.w3.org/2000/svg"
 width="400.000000pt" height="160.000000pt" viewBox="0 0 400.000000 160.000000"
 preserveAspectRatio="xMidYMid meet">

<g transform="translate(0.000000,160.000000) scale(0.100000,-0.100000)"
fill="#000000" stroke="none">
<path d="M508 1535 c21 -40 68 -72 132 -89 112 -30 196 -81 291 -176 70 -70
95 -103 127 -171 94 -196 94 -402 0 -598 -32 -68 -57 -101 -127 -171 -95 -95
-179 -146 -291 -176 -64 -17 -111 -49 -132 -89 -6 -11 9 -1 33 21 30 28 59 45
92 53 106 26 237 103 319 188 64 66 125 171 155 264 l28 88 60 4 60 3 -60 2
-60 2 3 50 4 50 54 0 c30 0 54 5 54 10 0 6 -24 10 -54 10 l-54 0 -4 50 -3 49
60 4 60 3 -60 2 -60 2 -28 89 c-30 93 -91 197 -155 264 -82 85 -213 162 -319
188 -33 8 -62 25 -92 53 -24 22 -39 32 -33 21z"/>
<path d="M400 1486 c0 -11 264 -462 278 -476 17 -17 21 -24 -148 269 -108 188
-130 222 -130 207z"/>
<path d="M300 1436 c0 -5 66 -124 146 -263 146 -253 147 -255 135 -292 -14
-49 -14 -113 0 -162 12 -37 11 -39 -136 -294 -81 -141 -146 -258 -143 -260 2
-2 72 114 155 258 l151 262 -14 34 c-18 43 -18 119 0 162 l14 34 -144 250
c-173 298 -163 282 -164 271z"/>
<path d="M633 1308 c14 -23 56 -97 94 -163 64 -110 72 -120 103 -126 58 -10
85 -25 136 -75 l48 -48 0 -96 0 -96 -48 -48 c-51 -50 -78 -65 -136 -75 -32 -6
-40 -16 -126 -166 -51 -88 -90 -162 -88 -164 2 -2 43 15 91 39 193 96 323 300
323 510 0 140 -67 298 -169 399 -61 61 -163 126 -230 146 l-23 7 25 -44z m141
-47 c94 -65 191 -201 221 -311 7 -23 5 -23 -26 9 -37 37 -101 70 -136 71 -12
0 -30 12 -41 28 -23 33 -152 259 -152 266 0 10 91 -33 134 -63z m212 -638
c-48 -135 -160 -265 -276 -321 -35 -17 -66 -29 -68 -27 -4 3 119 222 150 268
11 15 29 27 41 27 35 1 100 34 132 68 16 17 31 30 32 28 2 -2 -3 -21 -11 -43z"/>
<path d="M453 1274 c-9 -4 -9 -11 -1 -30 12 -27 16 -28 38 -14 26 16 -7 55
-37 44z"/>
<path d="M492 1201 c-10 -6 -9 -12 5 -29 22 -27 49 -15 38 17 -7 22 -21 26
-43 12z"/>
<path d="M528 1128 c-15 -11 -15 -15 -3 -32 8 -11 21 -16 30 -13 18 8 19 18 2
40 -10 15 -15 16 -29 5z"/>
<path d="M1931 1102 c-52 -26 -74 -63 -78 -129 -5 -67 15 -114 60 -147 40 -30
144 -30 183 0 51 38 67 69 68 131 1 44 -5 67 -22 94 -39 63 -140 88 -211 51z
m113 -42 c73 -27 72 -173 -1 -201 -68 -26 -123 22 -123 106 0 47 4 56 31 79
33 28 53 32 93 16z"/>
<path d="M582 1067 c-14 -17 12 -52 33 -44 18 8 20 28 3 45 -15 15 -23 15 -36
-1z"/>
<path d="M2234 928 l43 -123 39 0 38 0 38 105 c21 58 41 113 44 123 4 14 -1
17 -30 17 -20 0 -36 -5 -36 -11 0 -6 -12 -50 -27 -97 -23 -73 -28 -82 -34 -62
-4 14 -18 58 -29 98 -22 71 -22 72 -56 72 l-33 0 43 -122z"/>
<path d="M2524 1040 c-41 -16 -64 -59 -64 -117 0 -49 4 -59 34 -89 26 -26 42
-34 70 -34 55 0 106 32 106 66 0 2 -13 4 -30 4 -16 0 -30 -4 -30 -9 0 -13 -34
-23 -53 -15 -12 4 -37 52 -37 70 0 2 36 4 80 4 89 0 92 3 66 64 -24 58 -82 81
-142 56z m80 -46 c27 -26 18 -34 -35 -34 -51 0 -53 3 -26 38 13 17 42 15 61
-4z"/>
<path d="M2720 925 l0 -125 30 0 c30 0 30 0 30 58 0 76 16 129 40 137 11 3 24
3 30 0 6 -4 10 6 10 24 0 45 -42 42 -68 -4 -11 -19 -11 -18 -12 8 0 23 -4 27
-30 27 l-30 0 0 -125z"/>
<path d="M2900 875 l0 -175 30 0 30 0 0 65 c0 69 3 73 34 50 42 -32 100 -13
122 40 51 123 -40 245 -130 174 l-26 -20 0 20 c0 17 -6 21 -30 21 l-30 0 0
-175z m155 105 c8 -14 9 -82 1 -108 -8 -24 -31 -35 -57 -27 -23 8 -42 67 -34
105 12 53 65 71 90 30z"/>
<path d="M3230 1043 c-24 -9 -50 -35 -50 -50 0 -8 12 -13 30 -13 17 0 30 4 30
9 0 16 40 23 55 11 8 -7 15 -21 15 -31 0 -16 -8 -19 -49 -19 -65 0 -95 -24
-95 -75 0 -66 72 -98 126 -56 24 19 24 19 37 0 15 -26 74 -23 79 4 2 10 -3 17
-11 17 -21 0 -27 22 -27 96 0 56 -4 68 -25 89 -24 25 -76 32 -115 18z m80
-141 c0 -30 -24 -54 -50 -50 -51 7 -31 68 21 68 21 0 29 -5 29 -18z"/>
<path d="M3456 1029 c-22 -17 -26 -28 -24 -57 3 -40 18 -51 98 -74 52 -15 59
-38 17 -52 -22 -8 -35 -7 -59 7 -58 33 -92 12 -47 -29 32 -29 140 -27 170 3
26 25 28 67 4 93 -9 10 -40 24 -68 31 -56 13 -72 26 -55 46 14 18 53 16 72 -2
21 -21 70 -20 62 1 -3 9 -6 17 -6 20 0 2 -13 10 -30 19 -42 22 -102 19 -134
-6z"/>
<path d="M3706 1029 c-22 -17 -26 -28 -24 -57 3 -40 18 -51 98 -74 52 -15 59
-38 17 -52 -22 -8 -35 -7 -59 7 -58 33 -92 12 -47 -29 32 -29 140 -27 170 3
26 25 28 67 4 93 -9 10 -40 24 -68 31 -56 13 -72 26 -55 46 14 18 53 16 72 -2
21 -21 70 -20 62 1 -3 9 -6 17 -6 20 0 2 -13 10 -30 19 -42 22 -102 19 -134
-6z"/>
<path d="M617 998 c-16 -12 -16 -15 -1 -36 12 -18 19 -21 30 -11 17 14 17 20
1 42 -10 15 -15 16 -30 5z"/>
<path d="M770 960 c0 -16 7 -20 30 -20 23 0 30 4 30 20 0 16 -7 20 -30 20 -23
0 -30 -4 -30 -20z"/>
<path d="M726 915 c-15 -12 -17 -17 -7 -29 19 -23 64 0 50 25 -12 23 -18 23
-43 4z"/>
<path d="M833 913 c-9 -22 25 -47 44 -32 19 16 16 24 -12 37 -21 10 -27 9 -32
-5z"/>
<path d="M1403 913 c37 -2 97 -2 135 0 37 2 6 3 -68 3 -74 0 -105 -1 -67 -3z"/>
<path d="M641 889 c-11 -18 -11 -23 1 -30 20 -13 26 -11 39 12 9 17 8 23 -2
30 -20 12 -23 11 -38 -12z"/>
<path d="M921 901 c-10 -7 -11 -13 -2 -30 13 -23 19 -25 39 -12 12 7 12 12 1
30 -15 23 -18 24 -38 12z"/>
<path d="M1170 870 c0 -15 7 -20 25 -20 18 0 25 5 25 20 0 15 -7 20 -25 20
-18 0 -25 -5 -25 -20z"/>
<path d="M1350 860 c0 -11 7 -20 15 -20 8 0 15 9 15 20 0 11 -7 20 -15 20 -8
0 -15 -9 -15 -20z"/>
<path d="M664 815 c-9 -23 4 -47 23 -43 11 2 19 14 21 31 3 22 -1 27 -18 27
-11 0 -23 -7 -26 -15z"/>
<path d="M897 824 c-4 -4 -7 -18 -7 -31 0 -20 5 -24 23 -21 16 2 22 10 22 28
0 24 -23 39 -38 24z"/>
<path d="M780 800 c0 -13 7 -20 20 -20 13 0 20 7 20 20 0 13 -7 20 -20 20 -13
0 -20 -7 -20 -20z"/>
<path d="M1350 800 c0 -6 48 -10 125 -10 77 0 125 4 125 10 0 6 -48 10 -125
10 -77 0 -125 -4 -125 -10z"/>
<path d="M642 741 c-12 -7 -12 -12 -1 -30 15 -23 18 -24 38 -12 10 7 11 13 2
30 -13 23 -19 25 -39 12z"/>
<path d="M919 729 c-9 -17 -8 -23 2 -30 20 -12 23 -11 38 12 11 18 11 23 -1
30 -20 13 -26 11 -39 -12z"/>
<path d="M722 718 c-17 -17 -15 -23 12 -36 25 -11 36 -7 36 14 0 20 -35 35
-48 22z"/>
<path d="M842 716 c-19 -10 -21 -14 -9 -30 12 -16 16 -17 35 -5 25 16 27 22 9
37 -8 7 -19 7 -35 -2z"/>
<path d="M1403 683 c37 -2 97 -2 135 0 37 2 6 3 -68 3 -74 0 -105 -1 -67 -3z"/>
<path d="M770 640 c0 -16 7 -20 30 -20 23 0 30 4 30 20 0 16 -7 20 -30 20 -23
0 -30 -4 -30 -20z"/>
<path d="M673 588 c-22 -28 -273 -471 -269 -475 2 -2 59 91 126 207 67 117
131 227 142 246 20 33 20 46 1 22z"/>
<path d="M712 576 c-9 -20 -8 -25 5 -30 18 -7 43 10 43 29 0 7 -7 16 -16 19
-21 8 -19 9 -32 -18z"/>
<path d="M660 510 c-8 -15 -6 -21 9 -30 16 -8 22 -6 31 10 6 11 8 25 5 30 -10
16 -34 11 -45 -10z"/>
<path d="M640 430 c-8 -15 -6 -21 9 -30 16 -8 22 -6 31 10 6 11 8 25 5 30 -10
16 -34 11 -45 -10z"/>
<path d="M591 369 c-11 -18 -11 -23 1 -30 20 -13 26 -11 38 11 21 39 -15 56
-39 19z"/>
<path d="M553 301 c-10 -16 -9 -22 4 -32 13 -11 17 -10 29 6 8 11 13 24 11 30
-6 18 -32 16 -44 -4z"/>
</g>
</svg>
